<svg width="49" height="48" viewBox="0 0 49 48" fill="none" xmlns="http://www.w3.org/2000/svg">
<rect width="48" height="48" transform="translate(0.333008)" fill="white" fill-opacity="0.01"/>
<path d="M0.333008 16C0.333008 7.16344 7.49645 0 16.333 0H32.333C41.1696 0 48.333 7.16344 48.333 16V32C48.333 40.8366 41.1696 48 32.333 48H16.333C7.49645 48 0.333008 40.8366 0.333008 32V16Z" fill="#009700" fill-opacity="0.0862745"/>
<path d="M31.4163 16.5L31.283 16.525L26.833 18.25L21.833 16.5L17.133 18.0833C16.958 18.1417 16.833 18.2917 16.833 18.4833V31.0833C16.833 31.3167 17.0163 31.5 17.2497 31.5L17.383 31.475L21.833 29.75L26.833 31.5L31.533 29.9167C31.708 29.8583 31.833 29.7083 31.833 29.5167V16.9167C31.833 16.6833 31.6497 16.5 31.4163 16.5ZM22.6663 18.5583L25.9997 19.725V29.4417L22.6663 28.275V18.5583ZM18.4997 19.3833L20.9997 18.5417V28.2917L18.4997 29.2583V19.3833ZM30.1663 28.6167L27.6663 29.4583V19.7167L30.1663 18.75V28.6167Z" fill="#2A7E3B"/>
</svg>
