<svg width="49" height="48" viewBox="0 0 49 48" fill="none" xmlns="http://www.w3.org/2000/svg">
<rect width="48" height="48" transform="translate(0.666992)" fill="white" fill-opacity="0.01"/>
<path d="M0.666992 16C0.666992 7.16344 7.83044 0 16.667 0H32.667C41.5035 0 48.667 7.16344 48.667 16V32C48.667 40.8366 41.5035 48 32.667 48H16.667C7.83044 48 0.666992 40.8366 0.666992 32V16Z" fill="#F52B00" fill-opacity="0.0941176"/>
<path d="M31.7503 16.5L31.617 16.525L27.167 18.25L22.167 16.5L17.467 18.0833C17.292 18.1417 17.167 18.2917 17.167 18.4833V31.0833C17.167 31.3167 17.3503 31.5 17.5837 31.5L17.717 31.475L22.167 29.75L27.167 31.5L31.867 29.9167C32.042 29.8583 32.167 29.7083 32.167 29.5167V16.9167C32.167 16.6833 31.9837 16.5 31.7503 16.5ZM23.0003 18.5583L26.3337 19.725V29.4417L23.0003 28.275V18.5583ZM18.8337 19.3833L21.3337 18.5417V28.2917L18.8337 29.2583V19.3833ZM30.5003 28.6167L28.0003 29.4583V19.7167L30.5003 18.75V28.6167Z" fill="#D13415"/>
</svg>
