<svg width="220" height="56" viewBox="0 0 220 56" fill="none" xmlns="http://www.w3.org/2000/svg">
<path d="M19 34H37V32H19V34ZM19 29H37V27H19V29ZM19 22V24H37V22H19Z" fill="#80838D"/>
<g clip-path="url(#clip0_10024_8818)">
<path d="M101.728 33.4781H91.6681C91.8564 33.1301 92.0161 32.8315 92.1786 32.5349C92.3278 32.2617 92.4955 31.9971 92.6255 31.715C92.6994 31.5544 92.7969 31.5266 92.9527 31.5271C94.5854 31.5327 96.2176 31.5323 97.8503 31.5337C97.9902 31.5337 98.1301 31.5337 98.3128 31.5337C98.2789 31.4207 98.2694 31.3368 98.2313 31.269C97.759 30.4374 97.2876 29.6057 96.8058 28.7797C96.4371 28.1482 96.0486 27.528 95.6784 26.8975C95.3102 26.2702 94.9678 25.6269 94.5873 25.0072C94.3184 24.5692 93.734 24.4411 93.2814 24.679C93.0389 24.8066 92.836 25.0142 92.6283 25.2007C91.9148 25.8412 91.2056 26.4863 90.4978 27.1334C90.0048 27.5845 89.5211 28.0465 89.0253 28.4948C88.3566 29.0995 87.6766 29.6914 87.0078 30.2956C86.407 30.8386 85.8178 31.3957 85.2174 31.9391C84.6914 32.4148 84.1517 32.8753 83.6266 33.3519C83.2301 33.7122 82.8506 34.0908 82.4578 34.4548C82.2002 34.6935 81.9308 34.9191 81.6704 35.1546C81.5325 35.2794 81.4143 35.4296 81.2659 35.5398C80.9118 35.803 80.5496 36.0555 80.1828 36.3003C79.7477 36.5904 79.305 36.8687 78.8647 37.1508C78.8214 37.1786 78.7733 37.1988 78.7041 37.1965C78.8939 36.9695 79.0775 36.7378 79.2739 36.517C79.864 35.8525 80.4578 35.1913 81.0516 34.5306C81.6191 33.8986 82.188 33.2681 82.7573 32.638C83.5937 31.7126 84.4329 30.7901 85.2673 29.8628C85.7199 29.3599 86.1602 28.8466 86.6142 28.3451C87.2226 27.6721 87.8433 27.0095 88.4503 26.3356C88.9711 25.7574 89.4774 25.1649 89.9968 24.5852C90.6255 23.8836 91.2621 23.1885 91.8946 22.4896C92.0147 22.3573 92.139 22.2283 92.2478 22.087C92.5944 21.6382 93.0469 21.3335 93.5565 21.1009C94.0702 20.8664 94.8162 21.0651 95.2136 21.4456C95.791 21.998 96.0151 22.7449 96.4032 23.3985C96.8473 24.1468 97.2367 24.9276 97.6436 25.698C97.9384 26.2561 98.2223 26.8198 98.511 27.3811C98.8181 27.9773 99.1195 28.5768 99.4331 29.1697C99.8908 30.0357 100.357 30.8975 100.82 31.7607C101.093 32.2678 101.369 32.7731 101.642 33.2803C101.674 33.3397 101.696 33.4037 101.728 33.4786V33.4781Z" fill="#ED1E24"/>
<path d="M112.288 33.163H110.572C110.48 32.6172 110.388 32.078 110.297 31.5388C110.214 31.0401 110.143 30.5391 110.044 30.0441C110.009 29.8704 109.854 29.7818 109.67 29.7799C109.052 29.7733 108.434 29.7677 107.816 29.7639C106.766 29.7573 105.715 29.7564 104.665 29.7423C104.459 29.7394 104.318 29.746 104.331 30.013C104.344 30.2857 104.315 30.5603 104.314 30.8339C104.311 31.5864 104.313 32.3385 104.313 33.1093H102.66C102.648 32.9695 102.625 32.824 102.623 32.6785C102.611 31.3142 102.602 29.9499 102.594 28.5852C102.592 28.2716 102.597 28.2702 102.917 28.2716C105.055 28.281 107.192 28.2899 109.33 28.2984C109.991 28.3008 110.07 28.2184 110.063 27.5558C110.06 27.3123 110.062 27.0693 110.06 26.8259C110.057 26.475 109.932 26.3469 109.58 26.3441C109.126 26.3403 108.672 26.3417 108.218 26.3413C106.517 26.3394 104.816 26.3385 103.115 26.3333C102.961 26.3328 102.806 26.3041 102.627 26.2862V24.8438C102.668 24.8438 102.714 24.8438 102.76 24.8438C105.05 24.8456 107.34 24.8466 109.631 24.8499C110.457 24.8508 111.144 25.1513 111.585 25.8656C111.721 26.0846 111.766 26.3808 111.785 26.6464C111.818 27.099 111.792 27.5558 111.802 28.0107C111.81 28.3361 111.681 28.6036 111.486 28.847C111.392 28.9643 111.37 29.066 111.471 29.1993C111.83 29.6726 111.82 30.2565 111.929 30.8033C112.032 31.3231 112.115 31.8468 112.199 32.37C112.239 32.6234 112.258 32.88 112.29 33.1644L112.288 33.163Z" fill="#ED1E24"/>
<path d="M121.732 26.3963C121.204 26.3963 120.674 26.401 120.143 26.3953C118.853 26.3812 117.562 26.3534 116.272 26.3492C115.803 26.3478 115.536 26.5842 115.424 27.1012C115.238 27.9555 115.184 28.8243 115.255 29.696C115.289 30.1076 115.346 30.5206 115.435 30.9242C115.574 31.5576 115.81 31.7365 116.415 31.7342C117.254 31.7309 118.093 31.7652 118.931 31.7634C119.706 31.7615 120.481 31.7299 121.256 31.7186C121.423 31.7163 121.592 31.7431 121.793 31.7591C121.793 32.214 121.799 32.635 121.785 33.056C121.783 33.1116 121.679 33.2063 121.618 33.2095C121.259 33.2293 120.897 33.2326 120.537 33.2317C119.109 33.2279 117.681 33.21 116.253 33.2204C115.718 33.2241 115.231 33.1017 114.76 32.8587C114.378 32.6619 114.193 32.3063 114.014 31.9578C113.665 31.2807 113.537 30.5357 113.474 29.7883C113.399 28.9124 113.424 28.0299 113.584 27.1648C113.724 26.4029 114.009 25.6885 114.689 25.2322C115.115 24.9468 115.612 24.8625 116.121 24.8695C117.728 24.8912 119.335 24.9171 120.942 24.9397C121.192 24.9435 121.442 24.9402 121.732 24.9402V26.3963Z" fill="#ED1E24"/>
<path d="M75.0644 31.278C75.2867 31.0806 75.5236 30.8975 75.7284 30.6837C76.3053 30.0823 76.8935 29.4889 77.4317 28.8541C78.2573 27.8798 79.0818 26.8998 79.8391 25.8723C80.7122 24.6874 81.5433 23.4682 82.334 22.2269C83.0696 21.0717 83.7289 19.8675 84.4211 18.6846C84.4951 18.5584 84.5648 18.4298 84.6637 18.3145C84.5059 18.6874 84.3609 19.066 84.189 19.4319C83.2405 21.4527 82.2525 23.4522 81.1063 25.3717C80.2657 26.7802 79.355 28.1374 78.3142 29.4032C77.4694 30.4312 76.5375 31.3778 75.4379 32.1383C74.8082 32.5739 74.132 32.9285 73.3837 33.1202C73.2702 33.1494 73.1431 33.1244 72.9707 33.1244C73.0366 32.9464 73.0583 32.8197 73.1237 32.7232C73.6926 31.8831 74.0246 30.962 74.1414 29.9537C74.31 28.5 74.0439 27.1334 73.3616 25.8454C72.747 24.6846 71.8961 23.7084 70.917 22.8494C70.0223 22.0644 69.0658 21.3524 68.026 20.7675C67.0917 20.2419 66.1353 19.7555 65.1892 19.2516C65.1694 19.2412 65.1506 19.2285 65.1525 19.1767C65.6116 19.31 66.0745 19.4315 66.5285 19.5789C67.9074 20.0267 69.2335 20.5961 70.4711 21.3566C71.2099 21.8106 71.9041 22.3225 72.5502 22.9073C73.2749 23.5633 73.8928 24.3008 74.4051 25.1254C74.9585 26.0159 75.3762 26.9752 75.5608 28.0088C75.7336 28.978 75.6192 29.9307 75.161 30.823C75.0978 30.9464 75.0456 31.0755 74.9881 31.2017C75.0136 31.2271 75.039 31.253 75.0644 31.2784V31.278Z" fill="#292974"/>
<path d="M70.7441 23.7779C70.5717 23.9747 70.4026 24.1748 70.226 24.3674C69.353 25.3182 68.7846 26.4235 68.5618 27.6964C68.3165 29.0997 68.511 30.455 69.0511 31.7661C69.5338 32.9382 70.203 33.9968 71.0516 34.9325C71.6915 35.6385 72.3546 36.3284 73.0544 36.9745C73.7344 37.6017 74.4747 38.164 75.2338 38.7922C74.7346 38.5356 74.275 38.3114 73.8272 38.0665C72.6828 37.4402 71.612 36.7004 70.6461 35.8268C69.1429 34.4668 67.96 32.8798 67.3803 30.9019C67.1344 30.0623 66.9597 29.2024 67.0257 28.3265C67.0996 27.3446 67.3822 26.4216 68.0264 25.6418C68.1224 25.5254 68.1879 25.3837 68.2901 25.2175C67.8597 25.2754 67.5644 25.5146 67.272 25.7256C66.0702 26.5925 64.8637 27.4553 63.6986 28.3703C62.8293 29.0531 62.0066 29.7972 61.19 30.544C60.3697 31.2942 59.5616 32.0604 58.7874 32.8577C57.8997 33.7717 57.0549 34.7277 56.1912 35.6653C56.1385 35.7228 56.0852 35.7802 56 35.8141C56.1841 35.5598 56.3593 35.2985 56.5543 35.0522C57.3374 34.0618 58.1069 33.0592 58.9192 32.0934C59.6317 31.2462 60.3763 30.4235 61.1406 29.6229C61.8418 28.8883 62.5646 28.1701 63.32 27.492C64.8086 26.1551 66.3876 24.9373 68.2543 24.1598C68.9357 23.8758 69.643 23.6535 70.3918 23.6253C70.5001 23.621 70.6098 23.6672 70.7191 23.6903C70.7276 23.7199 70.736 23.7491 70.7445 23.7788L70.7441 23.7779Z" fill="#292974"/>
<path d="M119.565 34.6406V35.3889C119.586 35.3955 119.608 35.4021 119.629 35.4087C119.667 35.3442 119.714 35.2834 119.743 35.2147C119.901 34.8281 120.173 34.6416 120.588 34.6416H123.641V35.4214H120.495C120.495 35.6734 120.486 35.8975 120.505 36.1198C120.507 36.1556 120.633 36.2078 120.701 36.2083C121.619 36.213 122.537 36.2093 123.455 36.2083C123.516 36.2083 123.577 36.2182 123.648 36.2243V37.0164H120.504V37.7901H123.641V38.5874C123.57 38.5874 123.488 38.5874 123.406 38.5874C122.48 38.5874 121.555 38.5874 120.629 38.5874C120.167 38.5874 119.907 38.4122 119.729 37.9837C119.705 37.9262 119.67 37.873 119.641 37.8179C119.617 37.8226 119.593 37.8273 119.569 37.8321V38.5874C119.29 38.5874 119.049 38.5874 118.809 38.5874C118.26 38.5874 117.711 38.5789 117.162 38.5902C116.728 38.5992 116.443 38.3774 116.287 38.0091C116.171 37.7346 116.083 37.4327 116.061 37.1374C116.014 36.5163 115.997 35.89 116.229 35.29C116.401 34.8441 116.689 34.642 117.17 34.6416C117.953 34.6416 118.736 34.6416 119.565 34.6416V34.6406ZM119.615 37.7501V35.4765C118.815 35.4765 118.032 35.4694 117.25 35.4864C117.161 35.4883 117.02 35.6145 116.997 35.7063C116.849 36.3077 116.848 36.9171 116.999 37.5184C117.022 37.6107 117.162 37.7383 117.25 37.7402C118.032 37.7576 118.815 37.7501 119.615 37.7501Z" fill="#292974"/>
<path d="M151.887 34.6608C151.897 34.8986 151.909 35.142 151.92 35.385C151.945 35.3898 151.969 35.3945 151.994 35.3992C152.026 35.3379 152.065 35.2786 152.09 35.2146C152.212 34.9019 152.546 34.625 152.965 34.633C153.968 34.6528 154.972 34.6396 155.994 34.6396V35.4185H152.863V36.2044H155.999V37.0163H152.858V37.7938H155.997V38.5854C155.916 38.5854 155.833 38.5854 155.751 38.5854C154.818 38.5854 153.884 38.5854 152.95 38.5854C152.531 38.5854 152.245 38.3895 152.084 37.9982C152.058 37.9355 152.022 37.8772 151.99 37.8169C151.967 37.8221 151.944 37.8272 151.921 37.8324C151.909 38.0759 151.897 38.3193 151.884 38.5859C151.407 38.5859 150.946 38.5859 150.485 38.5859C150.226 38.5859 149.966 38.5675 149.709 38.5892C149.004 38.6485 148.67 38.3 148.517 37.6864C148.318 36.8892 148.311 36.0815 148.584 35.2918C148.738 34.8421 149.04 34.6396 149.52 34.6396C150.289 34.6396 151.058 34.6415 151.826 34.6433C151.841 34.6433 151.856 34.6518 151.887 34.6608ZM151.97 35.4759C151.17 35.4759 150.394 35.4679 149.619 35.4863C149.524 35.4886 149.371 35.6177 149.347 35.7133C149.203 36.3066 149.203 36.9089 149.345 37.5032C149.367 37.5988 149.5 37.7363 149.586 37.7382C150.375 37.7561 151.166 37.7491 151.97 37.7491V35.4759Z" fill="#292974"/>
<path d="M137.731 34.6406V35.4313H137.485C136.607 35.4313 135.728 35.437 134.85 35.4271C134.644 35.4247 134.564 35.4873 134.583 35.6955C134.597 35.8575 134.585 36.0214 134.585 36.2111H137.731V37.0042H134.588C134.588 37.2387 134.573 37.4563 134.599 37.6686C134.605 37.7195 134.744 37.7901 134.823 37.7911C135.693 37.8 136.564 37.7967 137.435 37.7967H137.726V38.5752C137.648 38.5794 137.572 38.5865 137.496 38.5865C136.563 38.5874 135.629 38.5879 134.696 38.5865C134.173 38.586 133.798 38.2154 133.796 37.6964C133.793 36.975 133.793 36.2531 133.796 35.5316C133.797 35.0112 134.171 34.6416 134.693 34.6411C135.696 34.6402 136.7 34.6411 137.731 34.6411V34.6406Z" fill="#292974"/>
<path d="M133.494 34.6617V35.4321C133.402 35.4321 133.319 35.4321 133.236 35.4321C132.358 35.4321 131.479 35.4368 130.601 35.4284C130.409 35.4265 130.327 35.4788 130.345 35.6798C130.36 35.8423 130.348 36.0076 130.348 36.1884C130.439 36.196 130.515 36.2082 130.591 36.2082C131.25 36.2101 131.909 36.2091 132.568 36.2101C133.13 36.211 133.503 36.5849 133.503 37.1468C133.503 37.3271 133.503 37.5075 133.503 37.6878C133.502 38.2106 133.131 38.5868 132.614 38.5873C131.68 38.5882 130.747 38.5878 129.814 38.5873C129.737 38.5873 129.661 38.5807 129.571 38.5769V37.7976C129.765 37.7976 129.951 37.7976 130.137 37.7976C130.913 37.7976 131.69 37.7914 132.466 37.8018C132.667 37.8046 132.722 37.7354 132.716 37.5442C132.7 36.9494 132.797 37.0257 132.19 37.0201C131.557 37.0144 130.923 37.0097 130.289 36.9824C129.898 36.9659 129.564 36.5901 129.558 36.2021C129.555 35.9431 129.552 35.6841 129.558 35.4255C129.569 35.0436 129.948 34.6466 130.325 34.6443C131.352 34.6372 132.38 34.6424 133.407 34.6433C133.429 34.6433 133.451 34.6523 133.494 34.6617Z" fill="#292974"/>
<path d="M115.748 38.5748H114.967C114.901 38.1392 114.83 37.7055 114.773 37.2694C114.754 37.1206 114.727 37.0161 114.545 37.017C113.879 37.0222 113.212 37.0203 112.546 37.0227C112.524 37.0227 112.503 37.0349 112.456 37.0495V38.5739H111.662C111.662 38.1764 111.662 37.787 111.662 37.397C111.662 37.0071 111.662 36.629 111.662 36.2075C111.766 36.2075 111.857 36.2075 111.948 36.2075C112.795 36.2075 113.642 36.2033 114.489 36.2108C114.67 36.2127 114.749 36.1604 114.738 35.9734C114.727 35.8034 114.735 35.6325 114.735 35.4418H111.682V34.6511C111.753 34.6478 111.835 34.6412 111.917 34.6412C112.804 34.6403 113.69 34.6407 114.576 34.6407C115.163 34.6407 115.526 34.9836 115.542 35.5732C115.552 35.8976 115.557 36.2164 115.43 36.5386C115.372 36.6864 115.501 36.9035 115.53 37.0914C115.607 37.5802 115.675 38.0705 115.748 38.5743L115.748 38.5748Z" fill="#292974"/>
<path d="M142.138 38.5872C141.93 38.5872 141.757 38.5754 141.586 38.5904C141.404 38.6069 141.347 38.5382 141.326 38.3583C141.281 37.9585 141.212 37.561 141.137 37.165C141.126 37.1085 141.029 37.0275 140.971 37.0265C140.282 37.0171 139.592 37.0204 138.862 37.0204V38.5777H138.101V36.2076C138.186 36.2076 138.27 36.2076 138.353 36.2076C139.185 36.209 140.017 36.2062 140.848 36.2137C141.06 36.2156 141.158 36.1628 141.148 35.9222C141.123 35.3529 141.219 35.4353 140.662 35.4325C139.815 35.4282 138.968 35.4315 138.101 35.4315V34.6408C138.172 34.6408 138.254 34.6408 138.336 34.6408C139.238 34.6408 140.141 34.6404 141.043 34.6408C141.546 34.6408 141.94 35.0199 141.929 35.5186C141.922 35.8643 142.014 36.2255 141.803 36.5499C141.78 36.5853 141.803 36.655 141.814 36.7072C141.9 37.1546 141.99 37.6015 142.072 38.0498C142.103 38.217 142.114 38.3875 142.137 38.5872H142.138Z" fill="#292974"/>
<path d="M111.424 38.5789H108.386C108.495 38.3392 108.589 38.1099 108.707 37.8942C108.737 37.84 108.843 37.8033 108.915 37.8019C109.322 37.7934 109.729 37.7976 110.173 37.7976C110.151 37.695 110.148 37.6116 110.116 37.5415C109.881 37.0263 109.645 36.5111 109.396 36.002C109.357 35.921 109.256 35.8348 109.173 35.8226C109.12 35.8146 109.023 35.9262 108.987 36.003C108.579 36.8572 108.179 37.7152 107.774 38.5794H106.941C107.144 38.1391 107.337 37.7119 107.537 37.2876C107.902 36.5073 108.276 35.7312 108.635 34.9481C108.746 34.7042 108.938 34.5831 109.18 34.5747C109.437 34.5657 109.632 34.6957 109.749 34.9486C110.285 36.1108 110.831 37.2693 111.373 38.4291C111.392 38.4696 111.402 38.5139 111.425 38.5789H111.424Z" fill="#292974"/>
<path d="M102.962 36.2082H106.011V35.4383H102.969V34.6504C103.042 34.6471 103.125 34.6401 103.208 34.6401C104.118 34.6391 105.028 34.6509 105.937 34.6349C106.404 34.6264 106.857 35.0846 106.804 35.5099C106.784 35.6718 106.782 35.8414 106.804 36.0034C106.887 36.6109 106.422 37.0281 105.783 37.0177C105.195 37.0083 104.606 37.0177 104.018 37.0182C103.933 37.0182 103.849 37.0182 103.74 37.0182V38.5741H102.962V36.2082H102.962Z" fill="#292974"/>
<path d="M142.406 34.6525C143.267 34.5913 143.26 34.5946 143.603 35.3631C143.884 35.9932 144.182 36.6158 144.483 37.2369C144.52 37.3132 144.614 37.3961 144.691 37.406C144.742 37.4126 144.831 37.3057 144.866 37.2322C145.255 36.4203 145.633 35.6033 146.025 34.7933C146.059 34.7231 146.167 34.6548 146.247 34.6482C146.479 34.6289 146.713 34.6412 146.977 34.6412C146.856 34.9035 146.749 35.1418 146.639 35.3786C146.198 36.328 145.754 37.2765 145.314 38.2263C145.191 38.4928 144.979 38.6515 144.695 38.653C144.399 38.6548 144.175 38.515 144.04 38.2207C143.506 37.0504 142.958 35.8863 142.416 34.7198C142.41 34.7066 142.411 34.6892 142.407 34.652L142.406 34.6525Z" fill="#292974"/>
<path d="M65.5112 32.0844C65.5592 32.593 65.0449 33.143 64.4233 33.2711C63.7702 33.4058 62.9225 32.9156 62.8019 32.1918C62.744 31.8447 62.9715 31.3526 63.3397 31.1044C64.0993 30.5921 65.1382 30.8779 65.4739 31.7849C65.5079 31.8767 65.4998 31.9846 65.5112 32.0849V32.0844Z" fill="#ED1E24"/>
<path d="M127.366 38.5862C126.439 38.5862 125.531 38.5961 124.623 38.5815C124.242 38.5754 123.867 38.153 123.863 37.7362C123.853 36.7176 123.86 35.6985 123.86 34.6602H124.65C124.65 34.7887 124.65 34.9116 124.65 35.035C124.65 35.8582 124.656 36.6813 124.645 37.504C124.642 37.7249 124.699 37.8054 124.933 37.8012C125.654 37.7871 126.374 37.796 127.095 37.796C127.18 37.796 127.265 37.796 127.365 37.796V38.5862H127.366Z" fill="#292974"/>
<path d="M75.6752 24.2672C75.6606 23.8232 76.1065 23.2646 76.6688 23.0984C77.2829 22.9171 78.0891 23.2712 78.3448 23.858C78.5044 24.2244 78.4536 24.5682 78.2384 24.8677C77.6135 25.7393 76.5256 25.656 75.9073 24.8813C75.7773 24.7184 75.75 24.474 75.6752 24.2668V24.2672Z" fill="#ED1E24"/>
<path d="M147.99 38.5763H147.232V34.6582H147.99V38.5763Z" fill="#292974"/>
<path d="M64.8033 36.3749C64.2664 36.373 63.7531 35.9224 63.7659 35.4482C63.7776 34.9961 64.2627 34.5247 64.8188 34.5435C65.3684 34.5619 65.8346 35.0267 65.8337 35.4943C65.8323 35.9473 65.3246 36.3763 64.8033 36.3749Z" fill="#ED1E24"/>
<path d="M75.6641 21.9627C75.2176 22.0503 74.6059 21.5549 74.6224 21.0552C74.6393 20.5499 75.0538 20.1666 75.6664 20.1374C76.1416 20.1148 76.726 20.6634 76.6944 21.1164C76.6685 21.4932 76.2452 22.0051 75.6636 21.9627H75.6641Z" fill="#ED1E24"/>
<path d="M73.2563 19.2584C72.8499 19.265 72.361 18.844 72.3888 18.4795C72.4199 18.0736 72.75 17.7646 73.2271 17.7373C73.6391 17.7133 74.0879 18.1263 74.1119 18.5087C74.1326 18.844 73.6674 19.2523 73.2567 19.2589L73.2563 19.2584Z" fill="#ED1E24"/>
<path d="M66.5455 39.1541C66.1117 39.1541 65.6987 38.7712 65.6992 38.3709C65.6992 38.0441 66.1683 37.6457 66.5469 37.6504C66.9858 37.6556 67.3653 38.0229 67.3922 38.4194C67.4162 38.774 66.9829 39.2045 66.5455 39.1541Z" fill="#ED1E24"/>
<path d="M71.1238 16.1274C71.4299 16.1147 71.6912 16.3751 71.7101 16.6162C71.728 16.8441 71.444 17.0975 71.1808 17.1088C70.9156 17.1201 70.6062 16.854 70.5968 16.6068C70.5893 16.4067 70.894 16.1293 71.1238 16.1279V16.1274Z" fill="#ED1E24"/>
<path d="M69.5194 40.9449C69.2228 40.9401 68.9468 40.7019 68.9473 40.4509C68.9477 40.2357 69.2552 39.9616 69.4921 39.9649C69.7318 39.9682 70.0662 40.2488 70.0704 40.4504C70.0747 40.675 69.7695 40.9496 69.5194 40.9453V40.9449Z" fill="#ED1E24"/>
<path d="M68.9099 15.8386C68.7046 15.8358 68.4427 15.6125 68.4357 15.4341C68.4286 15.2631 68.7229 14.9938 68.9141 14.9961C69.1435 14.9989 69.3662 15.233 69.361 15.4666C69.3568 15.6662 69.1439 15.8414 68.9099 15.8381V15.8386Z" fill="#ED1E24"/>
</g>
<defs>
<clipPath id="clip0_10024_8818">
<rect width="100" height="25.9487" fill="white" transform="translate(56 14.9961)"/>
</clipPath>
</defs>
</svg>
