<svg width="32" height="32" viewBox="0 0 32 32" fill="none" xmlns="http://www.w3.org/2000/svg">
<path d="M0 16C0 7.16344 7.16344 0 16 0C24.8366 0 32 7.16344 32 16C32 24.8366 24.8366 32 16 32C7.16344 32 0 24.8366 0 16Z" fill="white" fill-opacity="0.01"/>
<g opacity="0.92">
<path d="M16 0.5C24.5604 0.5 31.5 7.43959 31.5 16C31.5 24.5604 24.5604 31.5 16 31.5C7.43959 31.5 0.5 24.5604 0.5 16C0.5 7.43959 7.43959 0.5 16 0.5Z" fill="white" fill-opacity="0.8"/>
<path d="M16 0.5C24.5604 0.5 31.5 7.43959 31.5 16C31.5 24.5604 24.5604 31.5 16 31.5C7.43959 31.5 0.5 24.5604 0.5 16C0.5 7.43959 7.43959 0.5 16 0.5Z" stroke="#FCFCFD"/>
<path d="M16.0003 22.5C16.7337 22.5 17.3337 21.9 17.3337 21.1667H14.667C14.667 21.9 15.2603 22.5 16.0003 22.5ZM20.0003 18.5V15.1667C20.0003 13.12 18.907 11.4067 17.0003 10.9533V10.5C17.0003 9.94667 16.5537 9.5 16.0003 9.5C15.447 9.5 15.0003 9.94667 15.0003 10.5V10.9533C13.087 11.4067 12.0003 13.1133 12.0003 15.1667V18.5L10.667 19.8333V20.5H21.3337V19.8333L20.0003 18.5Z" fill="#8B8D98"/>
</g>
</svg>
