<svg width="48" height="48" viewBox="0 0 48 48" fill="none" xmlns="http://www.w3.org/2000/svg">
<path d="M0 16C0 7.16344 7.16344 0 16 0H32C40.8366 0 48 7.16344 48 16V32C48 40.8366 40.8366 48 32 48H16C7.16344 48 0 40.8366 0 32V16Z" fill="#00B3EE" fill-opacity="0.117647"/>
<path d="M31.0833 16.5L30.95 16.525L26.5 18.25L21.5 16.5L16.8 18.0833C16.625 18.1417 16.5 18.2917 16.5 18.4833V31.0833C16.5 31.3167 16.6833 31.5 16.9167 31.5L17.05 31.475L21.5 29.75L26.5 31.5L31.2 29.9167C31.375 29.8583 31.5 29.7083 31.5 29.5167V16.9167C31.5 16.6833 31.3167 16.5 31.0833 16.5ZM22.3333 18.5583L25.6667 19.725V29.4417L22.3333 28.275V18.5583ZM18.1667 19.3833L20.6667 18.5417V28.2917L18.1667 29.2583V19.3833ZM29.8333 28.6167L27.3333 29.4583V19.7167L29.8333 18.75V28.6167Z" fill="#00749E"/>
</svg>
