<svg xmlns="http://www.w3.org/2000/svg" width="16" height="16" viewBox="0 0 16 16" fill="none">
  <path d="M12.713 3.28732L11.773 4.22732C12.733 5.19398 13.333 6.52732 13.333 8.00065C13.333 10.9473 10.9463 13.334 7.99967 13.334C5.05301 13.334 2.66634 10.9473 2.66634 8.00065C2.66634 5.28065 4.69967 3.04065 7.33301 2.71398V4.06065C5.43967 4.38065 3.99967 6.02065 3.99967 8.00065C3.99967 10.2073 5.79301 12.0007 7.99967 12.0007C10.2063 12.0007 11.9997 10.2073 11.9997 8.00065C11.9997 6.89398 11.553 5.89398 10.8263 5.17398L9.88634 6.11398C10.3663 6.60065 10.6663 7.26732 10.6663 8.00065C10.6663 9.47398 9.47301 10.6673 7.99967 10.6673C6.52634 10.6673 5.33301 9.47398 5.33301 8.00065C5.33301 6.76065 6.18634 5.72732 7.33301 5.42732V6.85398C6.93301 7.08732 6.66634 7.50732 6.66634 8.00065C6.66634 8.73398 7.26634 9.33398 7.99967 9.33398C8.73301 9.33398 9.33301 8.73398 9.33301 8.00065C9.33301 7.50732 9.06634 7.08065 8.66634 6.85398V1.33398H7.99967C4.31967 1.33398 1.33301 4.32065 1.33301 8.00065C1.33301 11.6807 4.31967 14.6673 7.99967 14.6673C11.6797 14.6673 14.6663 11.6807 14.6663 8.00065C14.6663 6.16065 13.9197 4.49398 12.713 3.28732Z" fill="#011D8A" fill-opacity="0.858824"/>
</svg>