<svg xmlns="http://www.w3.org/2000/svg" width="24" height="24" viewBox="0 0 24 24" fill="none">
  <path d="M21.6895 18.668L16.3895 13.368H15.3995L12.8595 15.908V16.898L18.1595 22.198C18.5495 22.588 19.1795 22.588 19.5695 22.198L21.6895 20.078C22.0795 19.698 22.0795 19.058 21.6895 18.668ZM18.8595 20.088L14.6195 15.848L15.3295 15.138L19.5695 19.378L18.8595 20.088Z" fill="#80838D"/>
  <path d="M17.3595 10.688L18.7695 9.27805L20.8895 11.398C22.0595 10.228 22.0595 8.32805 20.8895 7.15805L17.3495 3.61805L15.9395 5.02805V2.20805L15.2395 1.49805L11.6995 5.03805L12.4095 5.74805H15.2395L13.8295 7.15805L14.8895 8.21805L11.9995 11.108L7.86953 6.97805V5.55805L4.84953 2.53805L2.01953 5.36805L5.04953 8.39805H6.45953L10.5895 12.528L9.73953 13.378H7.61953L2.31953 18.678C1.92953 19.068 1.92953 19.698 2.31953 20.088L4.43953 22.208C4.82953 22.598 5.45953 22.598 5.84953 22.208L11.1495 16.908V14.788L16.2995 9.63805L17.3595 10.688ZM9.37953 15.838L5.13953 20.078L4.42953 19.368L8.66953 15.128L9.37953 15.838Z" fill="#80838D"/>
</svg>