<svg xmlns="http://www.w3.org/2000/svg" width="16" height="16" viewBox="0 0 16 16" fill="none">
  <g clip-path="url(#clip0_10051_6659)">
    <path d="M14.9513 7.06191L8.94463 1.05524C8.44463 0.555239 7.56463 0.548572 7.05797 1.05524L1.05797 7.05524C0.537969 7.57524 0.537969 8.41524 1.05797 8.93524L7.05797 14.9352C7.31797 15.1952 7.65797 15.3219 7.99797 15.3219C8.33797 15.3219 8.67797 15.1952 8.93797 14.9352L14.9313 8.94191C15.458 8.43524 15.4646 7.59524 14.9513 7.06191ZM8.00463 13.9952L2.00464 7.99524L8.00463 1.99524L14.0046 7.99524L8.00463 13.9952ZM5.3313 7.33524V10.0019H6.66464V8.00191H9.3313V9.66857L11.6646 7.33524L9.3313 5.00191V6.66857H5.99797C5.6313 6.66857 5.3313 6.96857 5.3313 7.33524Z" fill="#FCFCFD"/>
  </g>
  <defs>
    <clipPath id="clip0_10051_6659">
      <rect width="16" height="16" fill="white"/>
    </clipPath>
  </defs>
</svg>